<?xml version="1.0" standalone="no"?>
<!DOCTYPE svg PUBLIC "-//W3C//DTD SVG 20010904//EN"
 "http://www.w3.org/TR/2001/REC-SVG-20010904/DTD/svg10.dtd">
<svg version="1.0" xmlns="http://www.w3.org/2000/svg"
 width="424.000000pt" height="424.000000pt" viewBox="0 0 424.000000 424.000000"
 preserveAspectRatio="xMidYMid meet">

<g transform="translate(0.000000,424.000000) scale(0.100000,-0.100000)"
fill="#eee" stroke="none">
<path d="M3310 3815 l0 -205 -225 0 -225 0 0 -60 0 -60 225 0 225 0 0 -230 0
-230 60 0 60 0 0 230 0 230 210 0 210 0 0 60 0 60 -210 0 -210 0 0 205 0 205
-60 0 -60 0 0 -205z"/>
<path d="M2113 3398 l-583 -583 -2 -800 -3 -800 -65 -7 c-36 -3 -90 -15 -120
-27 -65 -25 -70 -25 -70 -7 0 7 -18 50 -40 93 -71 142 -206 253 -363 298 -77
22 -227 22 -304 0 -196 -57 -351 -212 -408 -408 -22 -77 -22 -227 0 -304 57
-196 212 -351 408 -408 93 -27 236 -23 331 9 89 30 86 30 86 12 0 -7 18 -49
40 -93 70 -141 207 -253 363 -298 77 -22 227 -22 303 0 122 35 222 102 306
203 l38 47 93 2 c263 5 476 168 555 424 15 49 17 185 19 1449 2 767 2 1482 1
1588 l-3 192 -582 -582z"/>
</g>
</svg>
